<mxfile host="app.diagrams.net" modified="2024-05-22T20:27:23.039Z" agent="Mozilla/5.0 (Windows NT 10.0; Win64; x64) AppleWebKit/537.36 (KHTML, like Gecko) Chrome/125.0.0.0 Safari/537.36 Edg/125.0.0.0" etag="C_Huye3DZgW5-Te-P_GT" version="24.4.6" type="github">
  <diagram id="C5RBs43oDa-KdzZeNtuy" name="Page-1">
    <mxGraphModel dx="1434" dy="2014" grid="1" gridSize="10" guides="1" tooltips="1" connect="1" arrows="1" fold="1" page="1" pageScale="1" pageWidth="827" pageHeight="1169" math="0" shadow="0">
      <root>
        <mxCell id="WIyWlLk6GJQsqaUBKTNV-0" />
        <mxCell id="WIyWlLk6GJQsqaUBKTNV-1" parent="WIyWlLk6GJQsqaUBKTNV-0" />
        <mxCell id="5FlebmdaXm4I7YoFL0KW-23" value="" style="edgeStyle=orthogonalEdgeStyle;rounded=0;orthogonalLoop=1;jettySize=auto;html=1;" parent="WIyWlLk6GJQsqaUBKTNV-1" source="5FlebmdaXm4I7YoFL0KW-0" target="5FlebmdaXm4I7YoFL0KW-27" edge="1">
          <mxGeometry relative="1" as="geometry">
            <mxPoint x="260" y="40.00000000000023" as="targetPoint" />
          </mxGeometry>
        </mxCell>
        <mxCell id="5FlebmdaXm4I7YoFL0KW-0" value="&lt;font style=&quot;font-size: 23px;&quot;&gt;Создание User Story&lt;/font&gt;" style="strokeWidth=2;html=1;shape=mxgraph.flowchart.terminator;whiteSpace=wrap;" parent="WIyWlLk6GJQsqaUBKTNV-1" vertex="1">
          <mxGeometry x="120" y="-190" width="280" height="120" as="geometry" />
        </mxCell>
        <mxCell id="5FlebmdaXm4I7YoFL0KW-15" value="Business analysis" style="swimlane;whiteSpace=wrap;html=1;" parent="WIyWlLk6GJQsqaUBKTNV-1" vertex="1">
          <mxGeometry x="40" y="200" width="550" height="1810" as="geometry">
            <mxRectangle x="40" y="200" width="140" height="30" as="alternateBounds" />
          </mxGeometry>
        </mxCell>
        <mxCell id="5FlebmdaXm4I7YoFL0KW-20" value="Blocked" style="swimlane;horizontal=0;whiteSpace=wrap;html=1;movable=1;resizable=1;rotatable=1;deletable=1;editable=1;locked=0;connectable=1;" parent="5FlebmdaXm4I7YoFL0KW-15" vertex="1">
          <mxGeometry x="-30" y="720" width="1520" height="540" as="geometry">
            <mxRectangle x="-30" y="640" width="40" height="70" as="alternateBounds" />
          </mxGeometry>
        </mxCell>
        <mxCell id="5FlebmdaXm4I7YoFL0KW-39" value="Доработка постановки задачи со стороны проектного менеджера" style="whiteSpace=wrap;html=1;arcSize=6;movable=1;resizable=1;rotatable=1;deletable=1;editable=1;locked=0;connectable=1;direction=west;" parent="5FlebmdaXm4I7YoFL0KW-20" vertex="1">
          <mxGeometry x="410" y="390" width="160" height="60" as="geometry" />
        </mxCell>
        <mxCell id="5FlebmdaXm4I7YoFL0KW-46" value="Описание соответствует&lt;div&gt;&amp;nbsp;поставленной задаче?&lt;/div&gt;" style="verticalLabelPosition=middle;verticalAlign=middle;html=1;shape=hexagon;perimeter=hexagonPerimeter2;arcSize=6;size=0.27;labelPosition=center;align=center;" parent="5FlebmdaXm4I7YoFL0KW-20" vertex="1">
          <mxGeometry x="45" y="170" width="170" height="80" as="geometry" />
        </mxCell>
        <mxCell id="5FlebmdaXm4I7YoFL0KW-53" style="edgeStyle=orthogonalEdgeStyle;rounded=0;orthogonalLoop=1;jettySize=auto;html=1;" parent="5FlebmdaXm4I7YoFL0KW-20" source="5FlebmdaXm4I7YoFL0KW-51" target="5FlebmdaXm4I7YoFL0KW-46" edge="1">
          <mxGeometry relative="1" as="geometry" />
        </mxCell>
        <mxCell id="5FlebmdaXm4I7YoFL0KW-51" value="(Задача_1)&lt;div&gt;Проверка проектным менеджером&lt;/div&gt;" style="whiteSpace=wrap;html=1;arcSize=6;" parent="5FlebmdaXm4I7YoFL0KW-20" vertex="1">
          <mxGeometry x="70" y="50" width="120" height="50" as="geometry" />
        </mxCell>
        <mxCell id="5FlebmdaXm4I7YoFL0KW-54" value="Closed" style="swimlane;horizontal=0;whiteSpace=wrap;html=1;startSize=23;" parent="5FlebmdaXm4I7YoFL0KW-15" vertex="1">
          <mxGeometry x="-30" y="1310" width="1520" height="360" as="geometry">
            <mxRectangle x="10" y="480" width="40" height="60" as="alternateBounds" />
          </mxGeometry>
        </mxCell>
        <mxCell id="5FlebmdaXm4I7YoFL0KW-81" value="(Задача_1)&lt;div&gt;Конец&lt;/div&gt;" style="strokeWidth=2;html=1;shape=mxgraph.flowchart.terminator;whiteSpace=wrap;" parent="5FlebmdaXm4I7YoFL0KW-54" vertex="1">
          <mxGeometry x="60" y="120" width="150" height="50" as="geometry" />
        </mxCell>
        <mxCell id="5FlebmdaXm4I7YoFL0KW-16" value="Development" style="swimlane;whiteSpace=wrap;html=1;" parent="WIyWlLk6GJQsqaUBKTNV-1" vertex="1">
          <mxGeometry x="680" y="200" width="480" height="1810" as="geometry" />
        </mxCell>
        <mxCell id="5FlebmdaXm4I7YoFL0KW-17" value="Quality assurance" style="swimlane;whiteSpace=wrap;html=1;" parent="WIyWlLk6GJQsqaUBKTNV-1" vertex="1">
          <mxGeometry x="1220" y="200" width="440" height="1806" as="geometry" />
        </mxCell>
        <mxCell id="5FlebmdaXm4I7YoFL0KW-18" value="New" style="swimlane;horizontal=0;whiteSpace=wrap;html=1;" parent="WIyWlLk6GJQsqaUBKTNV-1" vertex="1">
          <mxGeometry x="10" y="230" width="1520" height="210" as="geometry">
            <mxRectangle x="10" y="230" width="40" height="50" as="alternateBounds" />
          </mxGeometry>
        </mxCell>
        <mxCell id="5FlebmdaXm4I7YoFL0KW-35" style="edgeStyle=orthogonalEdgeStyle;rounded=0;orthogonalLoop=1;jettySize=auto;html=1;" parent="5FlebmdaXm4I7YoFL0KW-18" source="5FlebmdaXm4I7YoFL0KW-32" target="5FlebmdaXm4I7YoFL0KW-34" edge="1">
          <mxGeometry relative="1" as="geometry" />
        </mxCell>
        <mxCell id="5FlebmdaXm4I7YoFL0KW-32" value="(Задача_1) Описание задачи бизнес аналитику" style="whiteSpace=wrap;html=1;arcSize=6;" parent="5FlebmdaXm4I7YoFL0KW-18" vertex="1">
          <mxGeometry x="100" y="50" width="120" height="60" as="geometry" />
        </mxCell>
        <mxCell id="5FlebmdaXm4I7YoFL0KW-34" value="Задача понятна?" style="verticalLabelPosition=middle;verticalAlign=middle;html=1;shape=hexagon;perimeter=hexagonPerimeter2;arcSize=6;size=0.27;labelPosition=center;align=center;" parent="5FlebmdaXm4I7YoFL0KW-18" vertex="1">
          <mxGeometry x="280" y="50" width="140" height="60" as="geometry" />
        </mxCell>
        <mxCell id="5FlebmdaXm4I7YoFL0KW-74" style="edgeStyle=orthogonalEdgeStyle;rounded=0;orthogonalLoop=1;jettySize=auto;html=1;" parent="5FlebmdaXm4I7YoFL0KW-18" source="5FlebmdaXm4I7YoFL0KW-67" target="5FlebmdaXm4I7YoFL0KW-73" edge="1">
          <mxGeometry relative="1" as="geometry" />
        </mxCell>
        <mxCell id="5FlebmdaXm4I7YoFL0KW-67" value="(Задача_2) Описание задачи разработчику" style="whiteSpace=wrap;html=1;arcSize=6;" parent="5FlebmdaXm4I7YoFL0KW-18" vertex="1">
          <mxGeometry x="700" y="30" width="120" height="60" as="geometry" />
        </mxCell>
        <mxCell id="5FlebmdaXm4I7YoFL0KW-73" value="Задача понятна?" style="verticalLabelPosition=middle;verticalAlign=middle;html=1;shape=hexagon;perimeter=hexagonPerimeter2;arcSize=6;size=0.27;labelPosition=center;align=center;" parent="5FlebmdaXm4I7YoFL0KW-18" vertex="1">
          <mxGeometry x="910" y="30" width="140" height="60" as="geometry" />
        </mxCell>
        <mxCell id="5FlebmdaXm4I7YoFL0KW-19" value="Active" style="swimlane;horizontal=0;whiteSpace=wrap;html=1;" parent="WIyWlLk6GJQsqaUBKTNV-1" vertex="1">
          <mxGeometry x="10" y="480" width="1520" height="360" as="geometry">
            <mxRectangle x="10" y="480" width="40" height="60" as="alternateBounds" />
          </mxGeometry>
        </mxCell>
        <mxCell id="5FlebmdaXm4I7YoFL0KW-43" value="(Задача_1) Описание задачи разработчику" style="whiteSpace=wrap;html=1;arcSize=6;" parent="5FlebmdaXm4I7YoFL0KW-19" vertex="1">
          <mxGeometry x="80" y="60" width="120" height="60" as="geometry" />
        </mxCell>
        <mxCell id="5FlebmdaXm4I7YoFL0KW-29" value="" style="edgeStyle=orthogonalEdgeStyle;rounded=0;orthogonalLoop=1;jettySize=auto;html=1;" parent="WIyWlLk6GJQsqaUBKTNV-1" source="5FlebmdaXm4I7YoFL0KW-27" target="5FlebmdaXm4I7YoFL0KW-28" edge="1">
          <mxGeometry relative="1" as="geometry" />
        </mxCell>
        <mxCell id="5FlebmdaXm4I7YoFL0KW-30" value="Да" style="edgeLabel;html=1;align=center;verticalAlign=middle;resizable=0;points=[];" parent="5FlebmdaXm4I7YoFL0KW-29" vertex="1" connectable="0">
          <mxGeometry x="0.2343" relative="1" as="geometry">
            <mxPoint y="-17" as="offset" />
          </mxGeometry>
        </mxCell>
        <mxCell id="5FlebmdaXm4I7YoFL0KW-27" value="Разработка с&lt;span style=&quot;background-color: initial;&quot;&gt;вязана с&amp;nbsp;&lt;/span&gt;&lt;div&gt;&lt;span style=&quot;background-color: initial;&quot;&gt;пользовательским опытом?&lt;/span&gt;&lt;/div&gt;" style="verticalLabelPosition=middle;verticalAlign=middle;html=1;shape=hexagon;perimeter=hexagonPerimeter2;arcSize=6;size=0.27;labelPosition=center;align=center;" parent="WIyWlLk6GJQsqaUBKTNV-1" vertex="1">
          <mxGeometry x="155" y="-30" width="210" height="80" as="geometry" />
        </mxCell>
        <mxCell id="5FlebmdaXm4I7YoFL0KW-28" value="User story заводит старший бизнес аналитик/проектный менеджер" style="whiteSpace=wrap;html=1;arcSize=6;" parent="WIyWlLk6GJQsqaUBKTNV-1" vertex="1">
          <mxGeometry x="200" y="80" width="120" height="60" as="geometry" />
        </mxCell>
        <mxCell id="5FlebmdaXm4I7YoFL0KW-40" style="edgeStyle=orthogonalEdgeStyle;rounded=0;orthogonalLoop=1;jettySize=auto;html=1;labelBackgroundColor=#9AC7BF;fillColor=#dae8fc;strokeColor=#6c8ebf;" parent="WIyWlLk6GJQsqaUBKTNV-1" source="5FlebmdaXm4I7YoFL0KW-34" target="5FlebmdaXm4I7YoFL0KW-39" edge="1">
          <mxGeometry relative="1" as="geometry">
            <Array as="points">
              <mxPoint x="560" y="310" />
            </Array>
          </mxGeometry>
        </mxCell>
        <mxCell id="5FlebmdaXm4I7YoFL0KW-41" value="Нет" style="edgeLabel;html=1;align=center;verticalAlign=middle;resizable=0;points=[];" parent="5FlebmdaXm4I7YoFL0KW-40" vertex="1" connectable="0">
          <mxGeometry x="-0.7963" relative="1" as="geometry">
            <mxPoint x="-81" as="offset" />
          </mxGeometry>
        </mxCell>
        <mxCell id="5FlebmdaXm4I7YoFL0KW-42" style="edgeStyle=orthogonalEdgeStyle;rounded=0;orthogonalLoop=1;jettySize=auto;html=1;entryDx=0;entryDy=0;" parent="WIyWlLk6GJQsqaUBKTNV-1" source="5FlebmdaXm4I7YoFL0KW-39" target="5FlebmdaXm4I7YoFL0KW-32" edge="1">
          <mxGeometry relative="1" as="geometry">
            <Array as="points">
              <mxPoint x="50" y="1320" />
              <mxPoint x="50" y="310" />
            </Array>
          </mxGeometry>
        </mxCell>
        <mxCell id="5FlebmdaXm4I7YoFL0KW-36" style="edgeStyle=orthogonalEdgeStyle;rounded=0;orthogonalLoop=1;jettySize=auto;html=1;" parent="WIyWlLk6GJQsqaUBKTNV-1" source="5FlebmdaXm4I7YoFL0KW-34" target="5FlebmdaXm4I7YoFL0KW-43" edge="1">
          <mxGeometry relative="1" as="geometry">
            <mxPoint x="140" y="521.1428571428571" as="targetPoint" />
            <Array as="points">
              <mxPoint x="360" y="370" />
              <mxPoint x="140" y="370" />
            </Array>
          </mxGeometry>
        </mxCell>
        <mxCell id="5FlebmdaXm4I7YoFL0KW-38" value="Да" style="edgeLabel;html=1;align=center;verticalAlign=middle;resizable=0;points=[];" parent="5FlebmdaXm4I7YoFL0KW-36" vertex="1" connectable="0">
          <mxGeometry x="-0.3026" y="-1" relative="1" as="geometry">
            <mxPoint x="117" as="offset" />
          </mxGeometry>
        </mxCell>
        <mxCell id="5FlebmdaXm4I7YoFL0KW-33" value="" style="edgeStyle=orthogonalEdgeStyle;rounded=0;orthogonalLoop=1;jettySize=auto;html=1;" parent="WIyWlLk6GJQsqaUBKTNV-1" source="5FlebmdaXm4I7YoFL0KW-28" target="5FlebmdaXm4I7YoFL0KW-32" edge="1">
          <mxGeometry relative="1" as="geometry">
            <mxPoint x="269.9985714285715" y="140" as="sourcePoint" />
            <mxPoint x="179.99857142857135" y="260" as="targetPoint" />
            <Array as="points">
              <mxPoint x="180" y="110" />
            </Array>
          </mxGeometry>
        </mxCell>
        <mxCell id="5FlebmdaXm4I7YoFL0KW-52" value="" style="edgeStyle=orthogonalEdgeStyle;rounded=0;orthogonalLoop=1;jettySize=auto;html=1;" parent="WIyWlLk6GJQsqaUBKTNV-1" source="5FlebmdaXm4I7YoFL0KW-43" target="5FlebmdaXm4I7YoFL0KW-51" edge="1">
          <mxGeometry relative="1" as="geometry">
            <Array as="points">
              <mxPoint x="140" y="700" />
              <mxPoint x="140" y="700" />
            </Array>
          </mxGeometry>
        </mxCell>
        <mxCell id="5FlebmdaXm4I7YoFL0KW-56" style="edgeStyle=orthogonalEdgeStyle;rounded=0;orthogonalLoop=1;jettySize=auto;html=1;entryX=0.75;entryY=1;entryDx=0;entryDy=0;" parent="WIyWlLk6GJQsqaUBKTNV-1" source="5FlebmdaXm4I7YoFL0KW-46" target="5FlebmdaXm4I7YoFL0KW-43" edge="1">
          <mxGeometry relative="1" as="geometry">
            <mxPoint x="260" y="590" as="targetPoint" />
            <Array as="points">
              <mxPoint x="410" y="1130" />
              <mxPoint x="410" y="650" />
              <mxPoint x="180" y="650" />
            </Array>
          </mxGeometry>
        </mxCell>
        <mxCell id="5FlebmdaXm4I7YoFL0KW-57" value="Нет" style="edgeLabel;html=1;align=center;verticalAlign=middle;resizable=0;points=[];" parent="5FlebmdaXm4I7YoFL0KW-56" vertex="1" connectable="0">
          <mxGeometry x="-0.8647" relative="1" as="geometry">
            <mxPoint x="-1" as="offset" />
          </mxGeometry>
        </mxCell>
        <mxCell id="5FlebmdaXm4I7YoFL0KW-70" style="edgeStyle=orthogonalEdgeStyle;rounded=0;orthogonalLoop=1;jettySize=auto;html=1;entryX=0;entryY=0.5;entryDx=0;entryDy=0;" parent="WIyWlLk6GJQsqaUBKTNV-1" source="5FlebmdaXm4I7YoFL0KW-46" target="5FlebmdaXm4I7YoFL0KW-67" edge="1">
          <mxGeometry relative="1" as="geometry">
            <Array as="points">
              <mxPoint x="140" y="1220" />
              <mxPoint x="640" y="1220" />
              <mxPoint x="640" y="290" />
            </Array>
          </mxGeometry>
        </mxCell>
        <mxCell id="5FlebmdaXm4I7YoFL0KW-71" value="Да" style="edgeLabel;html=1;align=center;verticalAlign=middle;resizable=0;points=[];" parent="5FlebmdaXm4I7YoFL0KW-70" vertex="1" connectable="0">
          <mxGeometry x="-0.8746" y="-1" relative="1" as="geometry">
            <mxPoint as="offset" />
          </mxGeometry>
        </mxCell>
        <mxCell id="5FlebmdaXm4I7YoFL0KW-76" style="edgeStyle=orthogonalEdgeStyle;rounded=0;orthogonalLoop=1;jettySize=auto;html=1;entryX=1;entryY=0.5;entryDx=0;entryDy=0;" parent="WIyWlLk6GJQsqaUBKTNV-1" source="5FlebmdaXm4I7YoFL0KW-73" target="5FlebmdaXm4I7YoFL0KW-43" edge="1">
          <mxGeometry relative="1" as="geometry">
            <Array as="points">
              <mxPoint x="990" y="390" />
              <mxPoint x="500" y="390" />
              <mxPoint x="500" y="570" />
            </Array>
          </mxGeometry>
        </mxCell>
        <mxCell id="5FlebmdaXm4I7YoFL0KW-77" value="Нет" style="edgeLabel;html=1;align=center;verticalAlign=middle;resizable=0;points=[];" parent="5FlebmdaXm4I7YoFL0KW-76" vertex="1" connectable="0">
          <mxGeometry x="-0.9313" y="1" relative="1" as="geometry">
            <mxPoint as="offset" />
          </mxGeometry>
        </mxCell>
        <mxCell id="5FlebmdaXm4I7YoFL0KW-79" value="Разработка" style="rounded=0;whiteSpace=wrap;html=1;" parent="WIyWlLk6GJQsqaUBKTNV-1" vertex="1">
          <mxGeometry x="1020" y="510" width="120" height="60" as="geometry" />
        </mxCell>
        <mxCell id="5FlebmdaXm4I7YoFL0KW-78" style="edgeStyle=orthogonalEdgeStyle;rounded=0;orthogonalLoop=1;jettySize=auto;html=1;" parent="WIyWlLk6GJQsqaUBKTNV-1" source="5FlebmdaXm4I7YoFL0KW-73" target="5FlebmdaXm4I7YoFL0KW-79" edge="1">
          <mxGeometry relative="1" as="geometry">
            <mxPoint x="1080" y="540" as="targetPoint" />
            <Array as="points">
              <mxPoint x="1080" y="290" />
            </Array>
          </mxGeometry>
        </mxCell>
        <mxCell id="5FlebmdaXm4I7YoFL0KW-80" value="" style="edgeStyle=segmentEdgeStyle;endArrow=classic;html=1;curved=0;rounded=0;endSize=8;startSize=8;" parent="WIyWlLk6GJQsqaUBKTNV-1" target="5FlebmdaXm4I7YoFL0KW-81" edge="1">
          <mxGeometry width="50" height="50" relative="1" as="geometry">
            <mxPoint x="1080" y="400" as="sourcePoint" />
            <mxPoint x="190" y="1651.0526315789473" as="targetPoint" />
            <Array as="points">
              <mxPoint x="1080" y="420" />
              <mxPoint x="610" y="420" />
              <mxPoint x="610" y="1651" />
            </Array>
          </mxGeometry>
        </mxCell>
      </root>
    </mxGraphModel>
  </diagram>
</mxfile>
